<?xml version="1.0" encoding="UTF-8" standalone="no"?>
<!-- Created with Inkscape (http://www.inkscape.org/) -->

<svg
   width="70.174652mm"
   height="69.889389mm"
   viewBox="0 0 70.174654 69.889389"
   version="1.1"
   id="svg1"
   xml:space="preserve"
   inkscape:version="1.4.2 (f4327f4, 2025-05-13)"
   sodipodi:docname="favicon-coodii.svg"
   inkscape:export-filename="logo_coodii.png"
   inkscape:export-xdpi="96"
   inkscape:export-ydpi="96"
   xmlns:inkscape="http://www.inkscape.org/namespaces/inkscape"
   xmlns:sodipodi="http://sodipodi.sourceforge.net/DTD/sodipodi-0.dtd"
   xmlns:xlink="http://www.w3.org/1999/xlink"
   xmlns="http://www.w3.org/2000/svg"
   xmlns:svg="http://www.w3.org/2000/svg"><sodipodi:namedview
     id="namedview1"
     pagecolor="#ffffff"
     bordercolor="#000000"
     borderopacity="0.25"
     inkscape:showpageshadow="2"
     inkscape:pageopacity="0.0"
     inkscape:pagecheckerboard="0"
     inkscape:deskcolor="#d1d1d1"
     inkscape:document-units="mm"
     inkscape:zoom="0.44097222"
     inkscape:cx="290.26772"
     inkscape:cy="300.47244"
     inkscape:window-width="1366"
     inkscape:window-height="697"
     inkscape:window-x="-8"
     inkscape:window-y="-8"
     inkscape:window-maximized="1"
     inkscape:current-layer="layer1" /><defs
     id="defs1"><linearGradient
       id="linearGradient8"
       inkscape:collect="always"><stop
         style="stop-color:#01091d;stop-opacity:1;"
         offset="0"
         id="stop9" /><stop
         style="stop-color:#010c23;stop-opacity:1;"
         offset="0.49637982"
         id="stop11" /><stop
         style="stop-color:#010e27;stop-opacity:1;"
         offset="1"
         id="stop10" /></linearGradient><linearGradient
       inkscape:collect="always"
       xlink:href="#linearGradient8"
       id="linearGradient10"
       x1="3.2485282"
       y1="0.14468743"
       x2="209.58644"
       y2="208.34468"
       gradientUnits="userSpaceOnUse"
       gradientTransform="matrix(0.33618546,0,0,0.33618546,0.56326532,0)" /></defs><g
     inkscape:label="Capa 1"
     inkscape:groupmode="layer"
     id="layer1"
     transform="translate(-0.84852815)"><rect
       style="fill:url(#linearGradient10);stroke-width:0.088949"
       id="rect1"
       width="70.174652"
       height="69.889389"
       x="0.84852815"
       y="0" /><g
       fill="none"
       stroke="currentColor"
       stroke-linecap="round"
       stroke-linejoin="round"
       stroke-width="1"
       id="g2"
       transform="matrix(2.0762371,0,0,2.0762371,11.021009,10.029849)"
       style="stroke:#ffffff;stroke-opacity:1"><path
         stroke-width="2"
         d="m 8,12 h 0.009 m 3.986,0 h 0.01 m 3.986,0 H 16"
         id="path1"
         style="stroke:#ffffff;stroke-opacity:1" /><path
         stroke-width="1.5"
         d="m 18,21 c 1.232,0 2.231,-1.151 2.231,-2.571 0,-2.248 -0.1,-3.743 1.442,-5.52 0.436,-0.502 0.436,-1.316 0,-1.818 C 20.131,9.314 20.231,7.819 20.231,5.571 20.231,4.151 19.232,3 18,3 M 6,21 c -1.232,0 -2.231,-1.151 -2.231,-2.571 0,-2.248 0.1,-3.743 -1.442,-5.52 -0.436,-0.502 -0.436,-1.316 0,-1.818 C 3.835,9.352 3.769,7.84 3.769,5.57 3.769,4.151 4.768,3 6,3"
         id="path2"
         style="stroke:#ffffff;stroke-opacity:1" /></g></g></svg>
